<svg version="1.1" xmlns="http://www.w3.org/2000/svg" xmlns:xlink="http://www.w3.org/1999/xlink" width="540" height="492"><defs/><g><g transform="translate(-70,10) scale(1,1)"><path fill="none" stroke="#000000" d="M 80 0 L 600 0 L 600 472 L 80 472 L 80 0" stroke-miterlimit="10"/></g><g transform="translate(-70,10) scale(1,1)"><path fill="#ffffff" stroke="none" d="M 80 0 L 80 22 L 205.85888671875 22 L 216.85888671875 11 L 216.85888671875 0 L 80 0"/></g><g transform="translate(-70,10) scale(1,1)"><path fill="none" stroke="#000000" d="M 80 0 L 80 22 L 205.85888671875 22 L 216.85888671875 11 L 216.85888671875 0 L 80 0 L 80 0" stroke-miterlimit="10"/></g><g transform="translate(-70,10) scale(1,1)"><g><path fill="none" stroke="none"/><text fill="#000000" stroke="none" font-family="Arial" font-size="13px" font-style="normal" font-weight="normal" text-decoration="none" x="150.97900390625" y="17.5">seq2048</text></g></g><g transform="translate(-70,10) scale(1,1)"><g><path fill="none" stroke="none"/><text fill="#000000" stroke="none" font-family="Arial" font-size="13px" font-style="normal" font-weight="bold" text-decoration="none" x="85" y="17.5">interaction</text></g></g><g transform="translate(-70,10) scale(1,1)"><rect fill="#C0C0C0" stroke="none" x="135" y="47" width="71.736328125" height="39" opacity="0.2"/></g><g transform="translate(-70,10) scale(1,1)"><rect fill="#ffffff" stroke="none" x="128" y="40" width="71.736328125" height="39"/></g><g transform="translate(-70,10) scale(1,1)"><path fill="none" stroke="#000000" d="M 128 40 L 199.736328125 40 L 199.736328125 79 L 128 79 L 128 40 Z Z" stroke-miterlimit="10"/></g><g transform="translate(-70,10) scale(1,1)"><g><path fill="none" stroke="none"/><text fill="#000000" stroke="none" font-family="Arial" font-size="13px" font-style="normal" font-weight="bold" text-decoration="none" x="150.14453125" y="59.5">User</text></g></g><g transform="translate(-70,10) scale(1,1)"><path fill="none" stroke="#000000" d="M 164.5 80 L 164.5 446" stroke-miterlimit="10" stroke-dasharray="3"/></g><g transform="translate(-70,10) scale(1,1)"><rect fill="#C0C0C0" stroke="none" x="295" y="47" width="71.736328125" height="39" opacity="0.2"/></g><g transform="translate(-70,10) scale(1,1)"><rect fill="#ffffff" stroke="none" x="288" y="40" width="71.736328125" height="39"/></g><g transform="translate(-70,10) scale(1,1)"><path fill="none" stroke="#000000" d="M 288 40 L 359.736328125 40 L 359.736328125 79 L 288 79 L 288 40 Z Z" stroke-miterlimit="10"/></g><g transform="translate(-70,10) scale(1,1)"><g><path fill="none" stroke="none"/><text fill="#000000" stroke="none" font-family="Arial" font-size="13px" font-style="normal" font-weight="bold" text-decoration="none" x="307.608642578125" y="59.5">game</text></g></g><g transform="translate(-70,10) scale(1,1)"><path fill="none" stroke="#000000" d="M 324.5 80 L 324.5 446" stroke-miterlimit="10" stroke-dasharray="3"/></g><g transform="translate(-70,10) scale(1,1)"><rect fill="#C0C0C0" stroke="none" x="455" y="47" width="71.736328125" height="39" opacity="0.2"/></g><g transform="translate(-70,10) scale(1,1)"><rect fill="#ffffff" stroke="none" x="448" y="40" width="71.736328125" height="39"/></g><g transform="translate(-70,10) scale(1,1)"><path fill="none" stroke="#000000" d="M 448 40 L 519.736328125 40 L 519.736328125 79 L 448 79 L 448 40 Z Z" stroke-miterlimit="10"/></g><g transform="translate(-70,10) scale(1,1)"><g><path fill="none" stroke="none"/><text fill="#000000" stroke="none" font-family="Arial" font-size="13px" font-style="normal" font-weight="bold" text-decoration="none" x="467.24365234375" y="59.5">board</text></g></g><g transform="translate(-70,10) scale(1,1)"><path fill="none" stroke="#000000" d="M 484.5 80 L 484.5 430" stroke-miterlimit="10" stroke-dasharray="3"/></g><g transform="translate(-70,10) scale(1,1)"><path fill="none" stroke="#000000" d="M 164 90 L 317 90" stroke-miterlimit="10"/></g><g transform="translate(-70,10) scale(1,1)"><path fill="#000000" stroke="none" d="M 306.83732514237585 94.20951775601598 L 317 90 L 306.83732514237585 85.79048224398402"/></g><g transform="translate(-70,10) scale(1,1)"><path fill="none" stroke="#000000" d="M 306.83732514237585 94.20951775601598 L 317 90 L 306.83732514237585 85.79048224398402 L 306.83732514237585 94.20951775601598" stroke-miterlimit="10"/></g><g transform="translate(-70,10) scale(1,1)"><g><path fill="none" stroke="none"/><text fill="#000000" stroke="none" font-family="Arial" font-size="13px" font-style="normal" font-weight="normal" text-decoration="none" x="200.5" y="86.5">1 : new game</text></g></g><g transform="translate(-70,10) scale(1,1)"><rect fill="#ffffff" stroke="none" x="317" y="90" width="13" height="54"/></g><g transform="translate(-70,10) scale(1,1)"><path fill="none" stroke="#000000" d="M 317 90 L 330 90 L 330 144 L 317 144 L 317 90 Z Z" stroke-miterlimit="10"/></g><g transform="translate(-70,10) scale(1,1)"><path fill="none" stroke="#000000" d="M 330 97 L 477 97" stroke-miterlimit="10"/></g><g transform="translate(-70,10) scale(1,1)"><path fill="#000000" stroke="none" d="M 466.83732514237585 101.20951775601598 L 477 97 L 466.83732514237585 92.79048224398402"/></g><g transform="translate(-70,10) scale(1,1)"><path fill="none" stroke="#000000" d="M 466.83732514237585 101.20951775601598 L 477 97 L 466.83732514237585 92.79048224398402 L 466.83732514237585 101.20951775601598" stroke-miterlimit="10"/></g><g transform="translate(-70,10) scale(1,1)"><g><path fill="none" stroke="none"/><text fill="#000000" stroke="none" font-family="Arial" font-size="13px" font-style="normal" font-weight="normal" text-decoration="none" x="385.180419921875" y="93.5">2 : init</text></g></g><g transform="translate(-70,10) scale(1,1)"><rect fill="#ffffff" stroke="none" x="477" y="97" width="13" height="28"/></g><g transform="translate(-70,10) scale(1,1)"><path fill="none" stroke="#000000" d="M 477 97 L 490 97 L 490 125 L 477 125 L 477 97 Z Z" stroke-miterlimit="10"/></g><g transform="translate(-70,10) scale(1,1)"><path fill="none" stroke="#000000" d="M 477 113 L 330 113" stroke-miterlimit="10" stroke-dasharray="3"/></g><g transform="translate(-70,10) scale(1,1)"><path fill="none" stroke="#000000" d="M 340.16267485762415 108.79048224398402 L 330 113 L 340.16267485762415 117.20951775601598" stroke-miterlimit="10"/></g><g transform="translate(-70,10) scale(1,1)"><g><path fill="none" stroke="none"/><text fill="#000000" stroke="none" font-family="Arial" font-size="13px" font-style="normal" font-weight="normal" text-decoration="none" x="392.5" y="129.5">3 : </text></g></g><g transform="translate(-70,10) scale(1,1)"><path fill="none" stroke="#000000" d="M 317 136 L 164 136" stroke-miterlimit="10" stroke-dasharray="3"/></g><g transform="translate(-70,10) scale(1,1)"><path fill="none" stroke="#000000" d="M 174.16267485762415 131.790482243984 L 164 136 L 174.16267485762415 140.209517756016" stroke-miterlimit="10"/></g><g transform="translate(-70,10) scale(1,1)"><g><path fill="none" stroke="none"/><text fill="#000000" stroke="none" font-family="Arial" font-size="13px" font-style="normal" font-weight="normal" text-decoration="none" x="229.5" y="152.5">4 : </text></g></g><g transform="translate(-70,10) scale(1,1)"><path fill="none" stroke="#000000" d="M 164 168 L 317 168" stroke-miterlimit="10"/></g><g transform="translate(-70,10) scale(1,1)"><path fill="#000000" stroke="none" d="M 306.83732514237585 172.209517756016 L 317 168 L 306.83732514237585 163.790482243984"/></g><g transform="translate(-70,10) scale(1,1)"><path fill="none" stroke="#000000" d="M 306.83732514237585 172.209517756016 L 317 168 L 306.83732514237585 163.790482243984 L 306.83732514237585 172.209517756016" stroke-miterlimit="10"/></g><g transform="translate(-70,10) scale(1,1)"><g><path fill="none" stroke="none"/><text fill="#000000" stroke="none" font-family="Arial" font-size="13px" font-style="normal" font-weight="normal" text-decoration="none" x="217.489501953125" y="164.5">5 : 操作</text></g></g><g transform="translate(-70,10) scale(1,1)"><rect fill="#ffffff" stroke="none" x="317" y="168" width="13" height="256"/></g><g transform="translate(-70,10) scale(1,1)"><path fill="none" stroke="#000000" d="M 317 168 L 330 168 L 330 424 L 317 424 L 317 168 Z Z" stroke-miterlimit="10"/></g><g transform="translate(-70,10) scale(1,1)"><path fill="none" stroke="#000000" d="M 330 184 L 477 184" stroke-miterlimit="10"/></g><g transform="translate(-70,10) scale(1,1)"><path fill="#000000" stroke="none" d="M 466.83732514237585 188.209517756016 L 477 184 L 466.83732514237585 179.790482243984"/></g><g transform="translate(-70,10) scale(1,1)"><path fill="none" stroke="#000000" d="M 466.83732514237585 188.209517756016 L 477 184 L 466.83732514237585 179.790482243984 L 466.83732514237585 188.209517756016" stroke-miterlimit="10"/></g><g transform="translate(-70,10) scale(1,1)"><g><path fill="none" stroke="none"/><text fill="#000000" stroke="none" font-family="Arial" font-size="13px" font-style="normal" font-weight="normal" text-decoration="none" x="376.14453125" y="180.5">6 : action</text></g></g><g transform="translate(-70,10) scale(1,1)"><rect fill="#ffffff" stroke="none" x="477" y="184" width="13" height="176"/></g><g transform="translate(-70,10) scale(1,1)"><path fill="none" stroke="#000000" d="M 477 184 L 490 184 L 490 360 L 477 360 L 477 184 Z Z" stroke-miterlimit="10"/></g><g transform="translate(-70,10) scale(1,1)"><path fill="none" stroke="#000000" d="M 490 192 L 520 192 L 520 212 L 497 212" stroke-miterlimit="10"/></g><g transform="translate(-70,10) scale(1,1)"><path fill="#000000" stroke="none" d="M 507.16267485762415 207.790482243984 L 497 212 L 507.16267485762415 216.209517756016"/></g><g transform="translate(-70,10) scale(1,1)"><path fill="none" stroke="#000000" d="M 507.16267485762415 207.790482243984 L 497 212 L 507.16267485762415 216.209517756016 L 507.16267485762415 207.790482243984" stroke-miterlimit="10"/></g><g transform="translate(-70,10) scale(1,1)"><g><path fill="none" stroke="none"/><text fill="#000000" stroke="none" font-family="Arial" font-size="13px" font-style="normal" font-weight="normal" text-decoration="none" x="506.489501953125" y="207.5">7 : 移動</text></g></g><g transform="translate(-70,10) scale(1,1)"><rect fill="#ffffff" stroke="none" x="484" y="212" width="13" height="28"/></g><g transform="translate(-70,10) scale(1,1)"><path fill="none" stroke="#000000" d="M 484 212 L 497 212 L 497 240 L 484 240 L 484 212 Z Z" stroke-miterlimit="10"/></g><g transform="translate(-70,10) scale(1,1)"><path fill="none" stroke="#000000" d="M 490 248 L 520 248 L 520 268 L 497 268" stroke-miterlimit="10"/></g><g transform="translate(-70,10) scale(1,1)"><path fill="#000000" stroke="none" d="M 507.16267485762415 263.790482243984 L 497 268 L 507.16267485762415 272.209517756016"/></g><g transform="translate(-70,10) scale(1,1)"><path fill="none" stroke="#000000" d="M 507.16267485762415 263.790482243984 L 497 268 L 507.16267485762415 272.209517756016 L 507.16267485762415 263.790482243984" stroke-miterlimit="10"/></g><g transform="translate(-70,10) scale(1,1)"><g><path fill="none" stroke="none"/><text fill="#000000" stroke="none" font-family="Arial" font-size="13px" font-style="normal" font-weight="normal" text-decoration="none" x="506.489501953125" y="263.5">8 : 合併</text></g></g><g transform="translate(-70,10) scale(1,1)"><rect fill="#ffffff" stroke="none" x="484" y="268" width="13" height="28"/></g><g transform="translate(-70,10) scale(1,1)"><path fill="none" stroke="#000000" d="M 484 268 L 497 268 L 497 296 L 484 296 L 484 268 Z Z" stroke-miterlimit="10"/></g><g transform="translate(-70,10) scale(1,1)"><path fill="none" stroke="#000000" d="M 490 304 L 520 304 L 520 324 L 497 324" stroke-miterlimit="10"/></g><g transform="translate(-70,10) scale(1,1)"><path fill="#000000" stroke="none" d="M 507.16267485762415 319.790482243984 L 497 324 L 507.16267485762415 328.209517756016"/></g><g transform="translate(-70,10) scale(1,1)"><path fill="none" stroke="#000000" d="M 507.16267485762415 319.790482243984 L 497 324 L 507.16267485762415 328.209517756016 L 507.16267485762415 319.790482243984" stroke-miterlimit="10"/></g><g transform="translate(-70,10) scale(1,1)"><g><path fill="none" stroke="none"/><text fill="#000000" stroke="none" font-family="Arial" font-size="13px" font-style="normal" font-weight="normal" text-decoration="none" x="506.489501953125" y="319.5">9 : 計分</text></g></g><g transform="translate(-70,10) scale(1,1)"><rect fill="#ffffff" stroke="none" x="484" y="324" width="13" height="28"/></g><g transform="translate(-70,10) scale(1,1)"><path fill="none" stroke="#000000" d="M 484 324 L 497 324 L 497 352 L 484 352 L 484 324 Z Z" stroke-miterlimit="10"/></g><g transform="translate(-70,10) scale(1,1)"><path fill="none" stroke="#000000" d="M 477 352 L 330 352" stroke-miterlimit="10" stroke-dasharray="3"/></g><g transform="translate(-70,10) scale(1,1)"><path fill="none" stroke="#000000" d="M 340.16267485762415 347.790482243984 L 330 352 L 340.16267485762415 356.209517756016" stroke-miterlimit="10"/></g><g transform="translate(-70,10) scale(1,1)"><g><path fill="none" stroke="none"/><text fill="#000000" stroke="none" font-family="Arial" font-size="13px" font-style="normal" font-weight="normal" text-decoration="none" x="389.5" y="368.5">10 : </text></g></g><g transform="translate(-70,10) scale(1,1)"><path fill="none" stroke="#000000" d="M 330 360 L 360 360 L 360 380 L 337 380" stroke-miterlimit="10"/></g><g transform="translate(-70,10) scale(1,1)"><path fill="#000000" stroke="none" d="M 347.16267485762415 375.790482243984 L 337 380 L 347.16267485762415 384.209517756016"/></g><g transform="translate(-70,10) scale(1,1)"><path fill="none" stroke="#000000" d="M 347.16267485762415 375.790482243984 L 337 380 L 347.16267485762415 384.209517756016 L 347.16267485762415 375.790482243984" stroke-miterlimit="10"/></g><g transform="translate(-70,10) scale(1,1)"><g><path fill="none" stroke="none"/><text fill="#000000" stroke="none" font-family="Arial" font-size="13px" font-style="normal" font-weight="normal" text-decoration="none" x="343.489501953125" y="375.5">11 : 輸出</text></g></g><g transform="translate(-70,10) scale(1,1)"><rect fill="#ffffff" stroke="none" x="324" y="380" width="13" height="28"/></g><g transform="translate(-70,10) scale(1,1)"><path fill="none" stroke="#000000" d="M 324 380 L 337 380 L 337 408 L 324 408 L 324 380 Z Z" stroke-miterlimit="10"/></g><g transform="translate(-70,10) scale(1,1)"><path fill="none" stroke="#000000" d="M 317 416 L 164 416" stroke-miterlimit="10" stroke-dasharray="3"/></g><g transform="translate(-70,10) scale(1,1)"><path fill="none" stroke="#000000" d="M 174.16267485762415 411.790482243984 L 164 416 L 174.16267485762415 420.209517756016" stroke-miterlimit="10"/></g><g transform="translate(-70,10) scale(1,1)"><g><path fill="none" stroke="none"/><text fill="#000000" stroke="none" font-family="Arial" font-size="13px" font-style="normal" font-weight="normal" text-decoration="none" x="226.5" y="432.5">12 : </text></g></g></g></svg>